<svg width="1280" height="720" viewBox="0 0 1280 720" fill="none" xmlns="http://www.w3.org/2000/svg">
<rect width="1280" height="720" fill="url(#paint0_linear_5_91)"/>
<g filter="url(#filter0_d_5_91)">
<rect x="425" y="200" width="428" height="273.718" rx="6" fill="white" shape-rendering="crispEdges"/>
<path d="M514.802 270.24C513.73 270.24 512.738 270.032 511.826 269.616C510.93 269.2 510.194 268.6 509.618 267.816L511.394 265.68C511.858 266.32 512.362 266.8 512.906 267.12C513.466 267.44 514.074 267.6 514.73 267.6C516.474 267.6 517.346 266.568 517.346 264.504V255.816H511.37V253.2H520.466V264.336C520.466 266.32 519.978 267.8 519.002 268.776C518.042 269.752 516.642 270.24 514.802 270.24ZM530.314 270.168C529.002 270.168 527.834 269.888 526.81 269.328C525.786 268.752 524.978 267.968 524.386 266.976C523.794 265.984 523.498 264.856 523.498 263.592C523.498 262.312 523.794 261.184 524.386 260.208C524.978 259.216 525.786 258.44 526.81 257.88C527.834 257.32 529.002 257.04 530.314 257.04C531.642 257.04 532.818 257.32 533.842 257.88C534.882 258.44 535.69 259.208 536.266 260.184C536.858 261.16 537.154 262.296 537.154 263.592C537.154 264.856 536.858 265.984 536.266 266.976C535.69 267.968 534.882 268.752 533.842 269.328C532.818 269.888 531.642 270.168 530.314 270.168ZM530.314 267.6C531.05 267.6 531.706 267.44 532.282 267.12C532.858 266.8 533.306 266.336 533.626 265.728C533.962 265.12 534.13 264.408 534.13 263.592C534.13 262.76 533.962 262.048 533.626 261.456C533.306 260.848 532.858 260.384 532.282 260.064C531.706 259.744 531.058 259.584 530.338 259.584C529.602 259.584 528.946 259.744 528.37 260.064C527.81 260.384 527.362 260.848 527.026 261.456C526.69 262.048 526.522 262.76 526.522 263.592C526.522 264.408 526.69 265.12 527.026 265.728C527.362 266.336 527.81 266.8 528.37 267.12C528.946 267.44 529.594 267.6 530.314 267.6ZM545.831 274.824C544.647 274.824 543.487 274.664 542.351 274.344C541.231 274.04 540.311 273.592 539.591 273L540.935 270.744C541.495 271.208 542.199 271.576 543.047 271.848C543.911 272.136 544.783 272.28 545.663 272.28C547.071 272.28 548.103 271.952 548.759 271.296C549.415 270.656 549.743 269.688 549.743 268.392V266.112L549.983 263.208L549.887 260.304V257.184H552.743V268.056C552.743 270.376 552.151 272.08 550.967 273.168C549.783 274.272 548.071 274.824 545.831 274.824ZM545.447 269.424C544.231 269.424 543.127 269.168 542.135 268.656C541.159 268.128 540.383 267.4 539.807 266.472C539.247 265.544 538.967 264.456 538.967 263.208C538.967 261.976 539.247 260.896 539.807 259.968C540.383 259.04 541.159 258.32 542.135 257.808C543.127 257.296 544.231 257.04 545.447 257.04C546.535 257.04 547.511 257.256 548.375 257.688C549.239 258.12 549.927 258.792 550.439 259.704C550.967 260.616 551.231 261.784 551.231 263.208C551.231 264.632 550.967 265.808 550.439 266.736C549.927 267.648 549.239 268.328 548.375 268.776C547.511 269.208 546.535 269.424 545.447 269.424ZM545.903 266.88C546.655 266.88 547.327 266.728 547.919 266.424C548.511 266.104 548.967 265.672 549.287 265.128C549.623 264.568 549.791 263.928 549.791 263.208C549.791 262.488 549.623 261.856 549.287 261.312C548.967 260.752 548.511 260.328 547.919 260.04C547.327 259.736 546.655 259.584 545.903 259.584C545.151 259.584 544.471 259.736 543.863 260.04C543.271 260.328 542.807 260.752 542.471 261.312C542.151 261.856 541.991 262.488 541.991 263.208C541.991 263.928 542.151 264.568 542.471 265.128C542.807 265.672 543.271 266.104 543.863 266.424C544.471 266.728 545.151 266.88 545.903 266.88ZM562.447 270.168C561.135 270.168 559.967 269.888 558.943 269.328C557.919 268.752 557.111 267.968 556.519 266.976C555.927 265.984 555.631 264.856 555.631 263.592C555.631 262.312 555.927 261.184 556.519 260.208C557.111 259.216 557.919 258.44 558.943 257.88C559.967 257.32 561.135 257.04 562.447 257.04C563.775 257.04 564.951 257.32 565.975 257.88C567.015 258.44 567.823 259.208 568.399 260.184C568.991 261.16 569.287 262.296 569.287 263.592C569.287 264.856 568.991 265.984 568.399 266.976C567.823 267.968 567.015 268.752 565.975 269.328C564.951 269.888 563.775 270.168 562.447 270.168ZM562.447 267.6C563.183 267.6 563.839 267.44 564.415 267.12C564.991 266.8 565.439 266.336 565.759 265.728C566.095 265.12 566.263 264.408 566.263 263.592C566.263 262.76 566.095 262.048 565.759 261.456C565.439 260.848 564.991 260.384 564.415 260.064C563.839 259.744 563.191 259.584 562.471 259.584C561.735 259.584 561.079 259.744 560.503 260.064C559.943 260.384 559.495 260.848 559.159 261.456C558.823 262.048 558.655 262.76 558.655 263.592C558.655 264.408 558.823 265.12 559.159 265.728C559.495 266.336 559.943 266.8 560.503 267.12C561.079 267.44 561.727 267.6 562.447 267.6ZM584.212 270.168C582.98 270.168 581.868 269.896 580.876 269.352C579.9 268.792 579.132 268.024 578.572 267.048C578.012 266.072 577.732 264.92 577.732 263.592C577.732 262.264 578.012 261.112 578.572 260.136C579.132 259.16 579.9 258.4 580.876 257.856C581.868 257.312 582.98 257.04 584.212 257.04C585.284 257.04 586.244 257.28 587.092 257.76C587.94 258.224 588.612 258.936 589.108 259.896C589.604 260.856 589.852 262.088 589.852 263.592C589.852 265.08 589.612 266.312 589.132 267.288C588.652 268.248 587.988 268.968 587.14 269.448C586.292 269.928 585.316 270.168 584.212 270.168ZM584.572 267.6C585.292 267.6 585.932 267.44 586.492 267.12C587.068 266.8 587.524 266.336 587.86 265.728C588.212 265.12 588.388 264.408 588.388 263.592C588.388 262.76 588.212 262.048 587.86 261.456C587.524 260.848 587.068 260.384 586.492 260.064C585.932 259.744 585.292 259.584 584.572 259.584C583.852 259.584 583.204 259.744 582.628 260.064C582.068 260.384 581.612 260.848 581.26 261.456C580.924 262.048 580.756 262.76 580.756 263.592C580.756 264.408 580.924 265.12 581.26 265.728C581.612 266.336 582.068 266.8 582.628 267.12C583.204 267.44 583.852 267.6 584.572 267.6ZM588.46 270V266.976L588.58 263.568L588.34 260.16V252.192H591.316V270H588.46ZM603.161 270V267.408L602.993 266.856V262.32C602.993 261.44 602.729 260.76 602.201 260.28C601.673 259.784 600.873 259.536 599.801 259.536C599.081 259.536 598.369 259.648 597.665 259.872C596.977 260.096 596.393 260.408 595.913 260.808L594.737 258.624C595.425 258.096 596.241 257.704 597.185 257.448C598.145 257.176 599.137 257.04 600.161 257.04C602.017 257.04 603.449 257.488 604.457 258.384C605.481 259.264 605.993 260.632 605.993 262.488V270H603.161ZM599.129 270.168C598.169 270.168 597.329 270.008 596.609 269.688C595.889 269.352 595.329 268.896 594.929 268.32C594.545 267.728 594.353 267.064 594.353 266.328C594.353 265.608 594.521 264.96 594.857 264.384C595.209 263.808 595.777 263.352 596.561 263.016C597.345 262.68 598.385 262.512 599.681 262.512H603.401V264.504H599.897C598.873 264.504 598.185 264.672 597.833 265.008C597.481 265.328 597.305 265.728 597.305 266.208C597.305 266.752 597.521 267.184 597.953 267.504C598.385 267.824 598.985 267.984 599.753 267.984C600.489 267.984 601.145 267.816 601.721 267.48C602.313 267.144 602.737 266.648 602.993 265.992L603.497 267.792C603.209 268.544 602.689 269.128 601.937 269.544C601.201 269.96 600.265 270.168 599.129 270.168ZM614.388 270L621.948 253.2H625.02L632.604 270H629.34L622.836 254.856H624.084L617.604 270H614.388ZM617.868 266.112L618.708 263.664H627.78L628.62 266.112H617.868ZM639.759 270.168C638.527 270.168 637.415 269.896 636.423 269.352C635.447 268.792 634.679 268.024 634.119 267.048C633.559 266.072 633.279 264.92 633.279 263.592C633.279 262.264 633.559 261.112 634.119 260.136C634.679 259.16 635.447 258.4 636.423 257.856C637.415 257.312 638.527 257.04 639.759 257.04C640.831 257.04 641.791 257.28 642.639 257.76C643.487 258.224 644.159 258.936 644.655 259.896C645.151 260.856 645.399 262.088 645.399 263.592C645.399 265.08 645.159 266.312 644.679 267.288C644.199 268.248 643.535 268.968 642.687 269.448C641.839 269.928 640.863 270.168 639.759 270.168ZM640.119 267.6C640.839 267.6 641.479 267.44 642.039 267.12C642.615 266.8 643.071 266.336 643.407 265.728C643.759 265.12 643.935 264.408 643.935 263.592C643.935 262.76 643.759 262.048 643.407 261.456C643.071 260.848 642.615 260.384 642.039 260.064C641.479 259.744 640.839 259.584 640.119 259.584C639.399 259.584 638.751 259.744 638.175 260.064C637.615 260.384 637.159 260.848 636.807 261.456C636.471 262.048 636.303 262.76 636.303 263.592C636.303 264.408 636.471 265.12 636.807 265.728C637.159 266.336 637.615 266.8 638.175 267.12C638.751 267.44 639.399 267.6 640.119 267.6ZM644.007 270V266.976L644.127 263.568L643.887 260.16V252.192H646.863V270H644.007ZM650.812 270V257.184H653.812V270H650.812ZM652.324 255.072C651.764 255.072 651.3 254.896 650.932 254.544C650.58 254.192 650.404 253.768 650.404 253.272C650.404 252.76 650.58 252.336 650.932 252C651.3 251.648 651.764 251.472 652.324 251.472C652.884 251.472 653.34 251.64 653.692 251.976C654.06 252.296 654.244 252.704 654.244 253.2C654.244 253.728 654.068 254.176 653.716 254.544C653.364 254.896 652.9 255.072 652.324 255.072ZM661.157 270L655.661 257.184H658.781L663.509 268.488H661.973L666.869 257.184H669.749L664.253 270H661.157ZM671.624 270V257.184H674.624V270H671.624ZM673.136 255.072C672.576 255.072 672.112 254.896 671.744 254.544C671.392 254.192 671.216 253.768 671.216 253.272C671.216 252.76 671.392 252.336 671.744 252C672.112 251.648 672.576 251.472 673.136 251.472C673.696 251.472 674.152 251.64 674.504 251.976C674.872 252.296 675.056 252.704 675.056 253.2C675.056 253.728 674.88 254.176 674.528 254.544C674.176 254.896 673.712 255.072 673.136 255.072ZM685.834 257.04C686.858 257.04 687.77 257.24 688.57 257.64C689.386 258.04 690.026 258.656 690.49 259.488C690.954 260.304 691.186 261.36 691.186 262.656V270H688.186V263.04C688.186 261.904 687.914 261.056 687.37 260.496C686.842 259.936 686.098 259.656 685.138 259.656C684.434 259.656 683.81 259.8 683.266 260.088C682.722 260.376 682.298 260.808 681.994 261.384C681.706 261.944 681.562 262.656 681.562 263.52V270H678.562V257.184H681.418V260.64L680.914 259.584C681.362 258.768 682.01 258.144 682.858 257.712C683.722 257.264 684.714 257.04 685.834 257.04ZM702.263 257.04C703.287 257.04 704.199 257.24 704.999 257.64C705.815 258.04 706.455 258.656 706.919 259.488C707.383 260.304 707.615 261.36 707.615 262.656V270H704.615V263.04C704.615 261.904 704.343 261.056 703.799 260.496C703.271 259.936 702.527 259.656 701.567 259.656C700.863 259.656 700.239 259.8 699.695 260.088C699.151 260.376 698.727 260.808 698.423 261.384C698.135 261.944 697.991 262.656 697.991 263.52V270H694.991V252.192H697.991V260.64L697.343 259.584C697.791 258.768 698.439 258.144 699.287 257.712C700.151 257.264 701.143 257.04 702.263 257.04ZM719.317 270V267.408L719.149 266.856V262.32C719.149 261.44 718.885 260.76 718.357 260.28C717.829 259.784 717.029 259.536 715.957 259.536C715.237 259.536 714.525 259.648 713.821 259.872C713.133 260.096 712.549 260.408 712.069 260.808L710.893 258.624C711.581 258.096 712.397 257.704 713.341 257.448C714.301 257.176 715.293 257.04 716.317 257.04C718.173 257.04 719.605 257.488 720.613 258.384C721.637 259.264 722.149 260.632 722.149 262.488V270H719.317ZM715.285 270.168C714.325 270.168 713.485 270.008 712.765 269.688C712.045 269.352 711.485 268.896 711.085 268.32C710.701 267.728 710.509 267.064 710.509 266.328C710.509 265.608 710.677 264.96 711.013 264.384C711.365 263.808 711.933 263.352 712.717 263.016C713.501 262.68 714.541 262.512 715.837 262.512H719.557V264.504H716.053C715.029 264.504 714.341 264.672 713.989 265.008C713.637 265.328 713.461 265.728 713.461 266.208C713.461 266.752 713.677 267.184 714.109 267.504C714.541 267.824 715.141 267.984 715.909 267.984C716.645 267.984 717.301 267.816 717.877 267.48C718.469 267.144 718.893 266.648 719.149 265.992L719.653 267.792C719.365 268.544 718.845 269.128 718.093 269.544C717.357 269.96 716.421 270.168 715.285 270.168ZM731.903 270.168C730.559 270.168 729.359 269.888 728.303 269.328C727.263 268.752 726.447 267.968 725.855 266.976C725.263 265.984 724.967 264.856 724.967 263.592C724.967 262.312 725.263 261.184 725.855 260.208C726.447 259.216 727.263 258.44 728.303 257.88C729.359 257.32 730.559 257.04 731.903 257.04C733.151 257.04 734.247 257.296 735.191 257.808C736.151 258.304 736.879 259.04 737.375 260.016L735.071 261.36C734.687 260.752 734.215 260.304 733.655 260.016C733.111 259.728 732.519 259.584 731.879 259.584C731.143 259.584 730.479 259.744 729.887 260.064C729.295 260.384 728.831 260.848 728.495 261.456C728.159 262.048 727.991 262.76 727.991 263.592C727.991 264.424 728.159 265.144 728.495 265.752C728.831 266.344 729.295 266.8 729.887 267.12C730.479 267.44 731.143 267.6 731.879 267.6C732.519 267.6 733.111 267.456 733.655 267.168C734.215 266.88 734.687 266.432 735.071 265.824L737.375 267.168C736.879 268.128 736.151 268.872 735.191 269.4C734.247 269.912 733.151 270.168 731.903 270.168ZM730.655 275.472C730.223 275.472 729.823 275.424 729.455 275.328C729.087 275.248 728.751 275.128 728.447 274.968L728.999 273.552C729.255 273.68 729.511 273.776 729.767 273.84C730.039 273.904 730.327 273.936 730.631 273.936C731.095 273.936 731.423 273.856 731.615 273.696C731.807 273.536 731.903 273.328 731.903 273.072C731.903 272.832 731.799 272.64 731.591 272.496C731.399 272.352 731.079 272.28 730.631 272.28H729.887L730.535 269.832H732.167L731.831 271.176C732.535 271.256 733.055 271.48 733.391 271.848C733.743 272.232 733.919 272.68 733.919 273.192C733.919 273.896 733.623 274.448 733.031 274.848C732.439 275.264 731.647 275.472 730.655 275.472ZM747.864 270V267.408L747.696 266.856V262.32C747.696 261.44 747.432 260.76 746.904 260.28C746.376 259.784 745.576 259.536 744.504 259.536C743.784 259.536 743.072 259.648 742.368 259.872C741.68 260.096 741.096 260.408 740.616 260.808L739.44 258.624C740.128 258.096 740.944 257.704 741.888 257.448C742.848 257.176 743.84 257.04 744.864 257.04C746.72 257.04 748.152 257.488 749.16 258.384C750.184 259.264 750.696 260.632 750.696 262.488V270H747.864ZM743.832 270.168C742.872 270.168 742.032 270.008 741.312 269.688C740.592 269.352 740.032 268.896 739.632 268.32C739.248 267.728 739.056 267.064 739.056 266.328C739.056 265.608 739.224 264.96 739.56 264.384C739.912 263.808 740.48 263.352 741.264 263.016C742.048 262.68 743.088 262.512 744.384 262.512H748.104V264.504H744.6C743.576 264.504 742.888 264.672 742.536 265.008C742.184 265.328 742.008 265.728 742.008 266.208C742.008 266.752 742.224 267.184 742.656 267.504C743.088 267.824 743.688 267.984 744.456 267.984C745.192 267.984 745.848 267.816 746.424 267.48C747.016 267.144 747.44 266.648 747.696 265.992L748.2 267.792C747.912 268.544 747.392 269.128 746.64 269.544C745.904 269.96 744.968 270.168 743.832 270.168ZM746.856 255.432C746.472 255.432 746.12 255.36 745.8 255.216C745.496 255.056 745.216 254.872 744.96 254.664C744.72 254.44 744.488 254.248 744.264 254.088C744.04 253.928 743.816 253.848 743.592 253.848C743.256 253.848 742.984 253.976 742.776 254.232C742.568 254.488 742.448 254.84 742.416 255.288H740.808C740.84 254.296 741.08 253.512 741.528 252.936C741.992 252.36 742.616 252.072 743.4 252.072C743.784 252.072 744.136 252.152 744.456 252.312C744.776 252.472 745.056 252.656 745.296 252.864C745.552 253.072 745.792 253.256 746.016 253.416C746.24 253.576 746.456 253.656 746.664 253.656C747 253.656 747.272 253.536 747.48 253.296C747.704 253.056 747.824 252.72 747.84 252.288H749.448C749.432 253.216 749.192 253.976 748.728 254.568C748.264 255.144 747.64 255.432 746.856 255.432ZM760.33 270.168C759.018 270.168 757.85 269.888 756.826 269.328C755.802 268.752 754.994 267.968 754.402 266.976C753.81 265.984 753.514 264.856 753.514 263.592C753.514 262.312 753.81 261.184 754.402 260.208C754.994 259.216 755.802 258.44 756.826 257.88C757.85 257.32 759.018 257.04 760.33 257.04C761.658 257.04 762.834 257.32 763.858 257.88C764.898 258.44 765.706 259.208 766.282 260.184C766.874 261.16 767.17 262.296 767.17 263.592C767.17 264.856 766.874 265.984 766.282 266.976C765.706 267.968 764.898 268.752 763.858 269.328C762.834 269.888 761.658 270.168 760.33 270.168ZM760.33 267.6C761.066 267.6 761.722 267.44 762.298 267.12C762.874 266.8 763.322 266.336 763.642 265.728C763.978 265.12 764.146 264.408 764.146 263.592C764.146 262.76 763.978 262.048 763.642 261.456C763.322 260.848 762.874 260.384 762.298 260.064C761.722 259.744 761.074 259.584 760.354 259.584C759.618 259.584 758.962 259.744 758.386 260.064C757.826 260.384 757.378 260.848 757.042 261.456C756.706 262.048 756.538 262.76 756.538 263.592C756.538 264.408 756.706 265.12 757.042 265.728C757.378 266.336 757.826 266.8 758.386 267.12C758.962 267.44 759.61 267.6 760.33 267.6Z" fill="#34355B"/>
<path d="M524.253 307.214L528.381 296.014H529.805L533.917 307.214H532.493L531.469 304.334H526.701L525.661 307.214H524.253ZM527.101 303.246H531.069L529.085 297.71L527.101 303.246ZM538.665 307.406C537.876 307.406 537.182 307.224 536.585 306.862C535.998 306.499 535.54 306.003 535.209 305.374C534.889 304.744 534.729 304.03 534.729 303.23C534.729 302.43 534.894 301.72 535.225 301.102C535.556 300.472 536.014 299.982 536.601 299.63C537.188 299.267 537.881 299.086 538.681 299.086C539.332 299.086 539.908 299.219 540.409 299.486C540.91 299.752 541.3 300.126 541.577 300.606V295.694H542.921V307.214H541.705L541.577 305.902C541.321 306.286 540.953 306.632 540.473 306.942C539.993 307.251 539.39 307.406 538.665 307.406ZM538.809 306.238C539.342 306.238 539.812 306.115 540.217 305.87C540.633 305.614 540.953 305.262 541.177 304.814C541.412 304.366 541.529 303.843 541.529 303.246C541.529 302.648 541.412 302.126 541.177 301.678C540.953 301.23 540.633 300.883 540.217 300.638C539.812 300.382 539.342 300.254 538.809 300.254C538.286 300.254 537.817 300.382 537.401 300.638C536.996 300.883 536.676 301.23 536.441 301.678C536.217 302.126 536.105 302.648 536.105 303.246C536.105 303.843 536.217 304.366 536.441 304.814C536.676 305.262 536.996 305.614 537.401 305.87C537.817 306.115 538.286 306.238 538.809 306.238ZM545.928 297.518C545.661 297.518 545.437 297.432 545.256 297.262C545.085 297.08 545 296.856 545 296.59C545 296.334 545.085 296.12 545.256 295.95C545.437 295.779 545.661 295.694 545.928 295.694C546.184 295.694 546.402 295.779 546.584 295.95C546.765 296.12 546.856 296.334 546.856 296.59C546.856 296.856 546.765 297.08 546.584 297.262C546.402 297.432 546.184 297.518 545.928 297.518ZM545.256 307.214V299.278H546.6V307.214H545.256ZM551.228 307.214L548.22 299.278H549.628L552.012 305.918L554.412 299.278H555.788L552.78 307.214H551.228ZM558.1 297.518C557.833 297.518 557.609 297.432 557.428 297.262C557.257 297.08 557.172 296.856 557.172 296.59C557.172 296.334 557.257 296.12 557.428 295.95C557.609 295.779 557.833 295.694 558.1 295.694C558.356 295.694 558.574 295.779 558.756 295.95C558.937 296.12 559.028 296.334 559.028 296.59C559.028 296.856 558.937 297.08 558.756 297.262C558.574 297.432 558.356 297.518 558.1 297.518ZM557.428 307.214V299.278H558.772V307.214H557.428ZM561.112 307.214V299.278H562.328L562.408 300.702C562.664 300.2 563.032 299.806 563.512 299.518C563.992 299.23 564.536 299.086 565.144 299.086C566.082 299.086 566.829 299.374 567.384 299.95C567.949 300.515 568.232 301.39 568.232 302.574V307.214H566.888V302.718C566.888 301.064 566.205 300.238 564.84 300.238C564.157 300.238 563.586 300.488 563.128 300.99C562.68 301.48 562.456 302.184 562.456 303.102V307.214H561.112ZM570.268 307.214V295.694H571.612V300.638C571.879 300.147 572.257 299.768 572.748 299.502C573.239 299.224 573.772 299.086 574.348 299.086C575.265 299.086 576.001 299.374 576.556 299.95C577.111 300.515 577.388 301.39 577.388 302.574V307.214H576.06V302.718C576.06 301.064 575.393 300.238 574.06 300.238C573.367 300.238 572.785 300.488 572.316 300.99C571.847 301.48 571.612 302.184 571.612 303.102V307.214H570.268ZM582.992 307.406C582.235 307.406 581.563 307.235 580.976 306.894C580.39 306.542 579.926 306.056 579.584 305.438C579.254 304.819 579.088 304.088 579.088 303.246C579.088 302.414 579.254 301.688 579.584 301.07C579.915 300.44 580.374 299.955 580.96 299.614C581.558 299.262 582.246 299.086 583.024 299.086C583.792 299.086 584.454 299.262 585.008 299.614C585.574 299.955 586.006 300.408 586.304 300.974C586.603 301.539 586.752 302.147 586.752 302.798C586.752 302.915 586.747 303.032 586.736 303.15C586.736 303.267 586.736 303.4 586.736 303.55H580.416C580.448 304.158 580.587 304.664 580.832 305.07C581.088 305.464 581.403 305.763 581.776 305.966C582.16 306.168 582.566 306.27 582.992 306.27C583.547 306.27 584.011 306.142 584.384 305.886C584.758 305.63 585.03 305.283 585.2 304.846H586.528C586.315 305.582 585.904 306.195 585.296 306.686C584.699 307.166 583.931 307.406 582.992 307.406ZM582.992 300.222C582.352 300.222 581.782 300.419 581.28 300.814C580.79 301.198 580.507 301.763 580.432 302.51H585.424C585.392 301.795 585.147 301.235 584.688 300.83C584.23 300.424 583.664 300.222 582.992 300.222ZM596.384 307.406C595.637 307.406 594.965 307.235 594.368 306.894C593.771 306.552 593.296 306.072 592.944 305.454C592.603 304.824 592.432 304.088 592.432 303.246C592.432 302.403 592.608 301.672 592.96 301.054C593.312 300.424 593.787 299.939 594.384 299.598C594.992 299.256 595.669 299.086 596.416 299.086C597.163 299.086 597.835 299.256 598.432 299.598C599.029 299.939 599.499 300.424 599.84 301.054C600.192 301.672 600.368 302.403 600.368 303.246C600.368 304.088 600.192 304.824 599.84 305.454C599.488 306.072 599.008 306.552 598.4 306.894C597.803 307.235 597.131 307.406 596.384 307.406ZM596.384 306.254C596.843 306.254 597.269 306.142 597.664 305.918C598.059 305.694 598.379 305.358 598.624 304.91C598.869 304.462 598.992 303.907 598.992 303.246C598.992 302.584 598.869 302.03 598.624 301.582C598.389 301.134 598.075 300.798 597.68 300.574C597.285 300.35 596.864 300.238 596.416 300.238C595.957 300.238 595.531 300.35 595.136 300.574C594.741 300.798 594.421 301.134 594.176 301.582C593.931 302.03 593.808 302.584 593.808 303.246C593.808 303.907 593.931 304.462 594.176 304.91C594.421 305.358 594.736 305.694 595.12 305.918C595.515 306.142 595.936 306.254 596.384 306.254ZM606.471 307.214V299.278H607.687L607.767 300.702C608.023 300.2 608.391 299.806 608.871 299.518C609.351 299.23 609.895 299.086 610.503 299.086C611.442 299.086 612.189 299.374 612.743 299.95C613.309 300.515 613.591 301.39 613.591 302.574V307.214H612.247V302.718C612.247 301.064 611.565 300.238 610.199 300.238C609.517 300.238 608.946 300.488 608.487 300.99C608.039 301.48 607.815 302.184 607.815 303.102V307.214H606.471ZM618.523 307.406C617.585 307.406 616.838 307.123 616.283 306.558C615.729 305.982 615.451 305.102 615.451 303.918V299.278H616.795V303.774C616.795 305.427 617.473 306.254 618.827 306.254C619.521 306.254 620.091 306.008 620.539 305.518C620.998 305.016 621.227 304.307 621.227 303.39V299.278H622.571V307.214H621.355L621.259 305.79C621.014 306.291 620.646 306.686 620.155 306.974C619.675 307.262 619.131 307.406 618.523 307.406ZM618.235 298.622V297.614L621.595 295.582V296.75L618.235 298.622ZM624.784 307.214V299.278H626L626.096 300.43C626.352 300.003 626.693 299.672 627.12 299.438C627.546 299.203 628.026 299.086 628.56 299.086C629.189 299.086 629.728 299.214 630.176 299.47C630.634 299.726 630.986 300.115 631.232 300.638C631.509 300.158 631.888 299.779 632.368 299.502C632.858 299.224 633.386 299.086 633.952 299.086C634.901 299.086 635.658 299.374 636.224 299.95C636.789 300.515 637.072 301.39 637.072 302.574V307.214H635.744V302.718C635.744 301.896 635.578 301.278 635.248 300.862C634.917 300.446 634.442 300.238 633.824 300.238C633.184 300.238 632.65 300.488 632.224 300.99C631.808 301.48 631.6 302.184 631.6 303.102V307.214H630.256V302.718C630.256 301.896 630.09 301.278 629.76 300.862C629.429 300.446 628.954 300.238 628.336 300.238C627.706 300.238 627.178 300.488 626.752 300.99C626.336 301.48 626.128 302.184 626.128 303.102V307.214H624.784ZM642.664 307.406C641.907 307.406 641.235 307.235 640.648 306.894C640.062 306.542 639.598 306.056 639.256 305.438C638.926 304.819 638.76 304.088 638.76 303.246C638.76 302.414 638.926 301.688 639.256 301.07C639.587 300.44 640.046 299.955 640.632 299.614C641.23 299.262 641.918 299.086 642.696 299.086C643.464 299.086 644.126 299.262 644.68 299.614C645.246 299.955 645.678 300.408 645.976 300.974C646.275 301.539 646.424 302.147 646.424 302.798C646.424 302.915 646.419 303.032 646.408 303.15C646.408 303.267 646.408 303.4 646.408 303.55H640.088C640.12 304.158 640.259 304.664 640.504 305.07C640.76 305.464 641.075 305.763 641.448 305.966C641.832 306.168 642.238 306.27 642.664 306.27C643.219 306.27 643.683 306.142 644.056 305.886C644.43 305.63 644.702 305.283 644.872 304.846H646.2C645.987 305.582 645.576 306.195 644.968 306.686C644.371 307.166 643.603 307.406 642.664 307.406ZM642.664 300.222C642.024 300.222 641.454 300.419 640.952 300.814C640.462 301.198 640.179 301.763 640.104 302.51H645.096C645.064 301.795 644.819 301.235 644.36 300.83C643.902 300.424 643.336 300.222 642.664 300.222ZM648.206 307.214V299.278H649.422L649.534 300.798C649.779 300.275 650.152 299.859 650.654 299.55C651.155 299.24 651.774 299.086 652.51 299.086V300.494H652.142C651.672 300.494 651.24 300.579 650.846 300.75C650.451 300.91 650.136 301.187 649.902 301.582C649.667 301.976 649.55 302.52 649.55 303.214V307.214H648.206ZM657.337 307.406C656.591 307.406 655.919 307.235 655.321 306.894C654.724 306.552 654.249 306.072 653.897 305.454C653.556 304.824 653.385 304.088 653.385 303.246C653.385 302.403 653.561 301.672 653.913 301.054C654.265 300.424 654.74 299.939 655.337 299.598C655.945 299.256 656.623 299.086 657.369 299.086C658.116 299.086 658.788 299.256 659.385 299.598C659.983 299.939 660.452 300.424 660.793 301.054C661.145 301.672 661.321 302.403 661.321 303.246C661.321 304.088 661.145 304.824 660.793 305.454C660.441 306.072 659.961 306.552 659.353 306.894C658.756 307.235 658.084 307.406 657.337 307.406ZM657.337 306.254C657.796 306.254 658.223 306.142 658.617 305.918C659.012 305.694 659.332 305.358 659.577 304.91C659.823 304.462 659.945 303.907 659.945 303.246C659.945 302.584 659.823 302.03 659.577 301.582C659.343 301.134 659.028 300.798 658.633 300.574C658.239 300.35 657.817 300.238 657.369 300.238C656.911 300.238 656.484 300.35 656.089 300.574C655.695 300.798 655.375 301.134 655.129 301.582C654.884 302.03 654.761 302.584 654.761 303.246C654.761 303.907 654.884 304.462 655.129 304.91C655.375 305.358 655.689 305.694 656.073 305.918C656.468 306.142 656.889 306.254 657.337 306.254ZM670.992 307.406C670.235 307.406 669.563 307.235 668.976 306.894C668.39 306.542 667.926 306.056 667.584 305.438C667.254 304.819 667.088 304.088 667.088 303.246C667.088 302.414 667.254 301.688 667.584 301.07C667.915 300.44 668.374 299.955 668.96 299.614C669.558 299.262 670.246 299.086 671.024 299.086C671.792 299.086 672.454 299.262 673.008 299.614C673.574 299.955 674.006 300.408 674.304 300.974C674.603 301.539 674.752 302.147 674.752 302.798C674.752 302.915 674.747 303.032 674.736 303.15C674.736 303.267 674.736 303.4 674.736 303.55H668.416C668.448 304.158 668.587 304.664 668.832 305.07C669.088 305.464 669.403 305.763 669.776 305.966C670.16 306.168 670.566 306.27 670.992 306.27C671.547 306.27 672.011 306.142 672.384 305.886C672.758 305.63 673.03 305.283 673.2 304.846H674.528C674.315 305.582 673.904 306.195 673.296 306.686C672.699 307.166 671.931 307.406 670.992 307.406ZM670.992 300.222C670.352 300.222 669.782 300.419 669.28 300.814C668.79 301.198 668.507 301.763 668.432 302.51H673.424C673.392 301.795 673.147 301.235 672.688 300.83C672.23 300.424 671.664 300.222 670.992 300.222ZM676.534 307.214V299.278H677.75L677.83 300.702C678.086 300.2 678.454 299.806 678.934 299.518C679.414 299.23 679.958 299.086 680.566 299.086C681.504 299.086 682.251 299.374 682.806 299.95C683.371 300.515 683.654 301.39 683.654 302.574V307.214H682.31V302.718C682.31 301.064 681.627 300.238 680.262 300.238C679.579 300.238 679.008 300.488 678.55 300.99C678.102 301.48 677.878 302.184 677.878 303.102V307.214H676.534ZM688.826 307.214C688.101 307.214 687.53 307.038 687.114 306.686C686.698 306.334 686.49 305.699 686.49 304.782V300.414H685.114V299.278H686.49L686.666 297.374H687.834V299.278H690.17V300.414H687.834V304.782C687.834 305.283 687.935 305.624 688.138 305.806C688.341 305.976 688.698 306.062 689.21 306.062H690.042V307.214H688.826ZM691.877 307.214V299.278H693.093L693.205 300.798C693.451 300.275 693.824 299.859 694.325 299.55C694.827 299.24 695.445 299.086 696.181 299.086V300.494H695.813C695.344 300.494 694.912 300.579 694.517 300.75C694.123 300.91 693.808 301.187 693.573 301.582C693.339 301.976 693.221 302.52 693.221 303.214V307.214H691.877ZM700.961 307.406C700.204 307.406 699.532 307.235 698.945 306.894C698.358 306.542 697.894 306.056 697.553 305.438C697.222 304.819 697.057 304.088 697.057 303.246C697.057 302.414 697.222 301.688 697.553 301.07C697.884 300.44 698.342 299.955 698.929 299.614C699.526 299.262 700.214 299.086 700.993 299.086C701.761 299.086 702.422 299.262 702.977 299.614C703.542 299.955 703.974 300.408 704.273 300.974C704.572 301.539 704.721 302.147 704.721 302.798C704.721 302.915 704.716 303.032 704.705 303.15C704.705 303.267 704.705 303.4 704.705 303.55H698.385C698.417 304.158 698.556 304.664 698.801 305.07C699.057 305.464 699.372 305.763 699.745 305.966C700.129 306.168 700.534 306.27 700.961 306.27C701.516 306.27 701.98 306.142 702.353 305.886C702.726 305.63 702.998 305.283 703.169 304.846H704.497C704.284 305.582 703.873 306.195 703.265 306.686C702.668 307.166 701.9 307.406 700.961 307.406ZM700.961 300.222C700.321 300.222 699.75 300.419 699.249 300.814C698.758 301.198 698.476 301.763 698.401 302.51H703.393C703.361 301.795 703.116 301.235 702.657 300.83C702.198 300.424 701.633 300.222 700.961 300.222ZM715.185 307.406C714.193 307.406 713.334 307.166 712.609 306.686C711.894 306.195 711.345 305.518 710.961 304.654C710.577 303.779 710.385 302.766 710.385 301.614C710.385 300.462 710.577 299.454 710.961 298.59C711.345 297.715 711.894 297.038 712.609 296.558C713.334 296.067 714.193 295.822 715.185 295.822C716.177 295.822 717.03 296.067 717.745 296.558C718.459 297.038 719.009 297.715 719.393 298.59C719.777 299.454 719.969 300.462 719.969 301.614C719.969 302.766 719.777 303.779 719.393 304.654C719.009 305.518 718.459 306.195 717.745 306.686C717.03 307.166 716.177 307.406 715.185 307.406ZM715.185 306.222C715.835 306.222 716.417 306.04 716.929 305.678C717.451 305.304 717.857 304.776 718.145 304.094C718.443 303.4 718.593 302.574 718.593 301.614C718.593 300.654 718.443 299.832 718.145 299.15C717.857 298.467 717.451 297.944 716.929 297.582C716.417 297.208 715.835 297.022 715.185 297.022C714.523 297.022 713.937 297.208 713.425 297.582C712.913 297.944 712.507 298.467 712.209 299.15C711.91 299.832 711.761 300.654 711.761 301.614C711.761 302.574 711.91 303.4 712.209 304.094C712.507 304.776 712.913 305.304 713.425 305.678C713.937 306.04 714.523 306.222 715.185 306.222ZM729.633 307.406C728.876 307.406 728.204 307.235 727.617 306.894C727.03 306.542 726.566 306.056 726.225 305.438C725.894 304.819 725.729 304.088 725.729 303.246C725.729 302.414 725.894 301.688 726.225 301.07C726.556 300.44 727.014 299.955 727.601 299.614C728.198 299.262 728.886 299.086 729.665 299.086C730.433 299.086 731.094 299.262 731.649 299.614C732.214 299.955 732.646 300.408 732.945 300.974C733.244 301.539 733.393 302.147 733.393 302.798C733.393 302.915 733.388 303.032 733.377 303.15C733.377 303.267 733.377 303.4 733.377 303.55H727.057C727.089 304.158 727.228 304.664 727.473 305.07C727.729 305.464 728.044 305.763 728.417 305.966C728.801 306.168 729.206 306.27 729.633 306.27C730.188 306.27 730.652 306.142 731.025 305.886C731.398 305.63 731.67 305.283 731.841 304.846H733.169C732.956 305.582 732.545 306.195 731.937 306.686C731.34 307.166 730.572 307.406 729.633 307.406ZM729.633 300.222C728.993 300.222 728.422 300.419 727.921 300.814C727.43 301.198 727.148 301.763 727.073 302.51H732.065C732.033 301.795 731.788 301.235 731.329 300.83C730.87 300.424 730.305 300.222 729.633 300.222ZM740.593 307.214V297.518L738.785 297.918V296.99L741.041 296.014H741.953V307.214H740.593ZM748.685 307.406C747.693 307.406 746.834 307.166 746.109 306.686C745.394 306.195 744.845 305.518 744.461 304.654C744.077 303.779 743.885 302.766 743.885 301.614C743.885 300.462 744.077 299.454 744.461 298.59C744.845 297.715 745.394 297.038 746.109 296.558C746.834 296.067 747.693 295.822 748.685 295.822C749.677 295.822 750.53 296.067 751.245 296.558C751.959 297.038 752.509 297.715 752.893 298.59C753.277 299.454 753.469 300.462 753.469 301.614C753.469 302.766 753.277 303.779 752.893 304.654C752.509 305.518 751.959 306.195 751.245 306.686C750.53 307.166 749.677 307.406 748.685 307.406ZM748.685 306.222C749.335 306.222 749.917 306.04 750.429 305.678C750.951 305.304 751.357 304.776 751.645 304.094C751.943 303.4 752.093 302.574 752.093 301.614C752.093 300.654 751.943 299.832 751.645 299.15C751.357 298.467 750.951 297.944 750.429 297.582C749.917 297.208 749.335 297.022 748.685 297.022C748.023 297.022 747.437 297.208 746.925 297.582C746.413 297.944 746.007 298.467 745.709 299.15C745.41 299.832 745.261 300.654 745.261 301.614C745.261 302.574 745.41 303.4 745.709 304.094C746.007 304.776 746.413 305.304 746.925 305.678C747.437 306.04 748.023 306.222 748.685 306.222Z" fill="#34355B" fill-opacity="0.8"/>
<path d="M619.5 356.718H697.5C699.709 356.718 701.5 358.508 701.5 360.718V405.718C701.5 407.927 699.709 409.718 697.5 409.718H619.5V356.718Z" fill="#7879F1"/>
<path d="M639.384 388.718V379.166H636.12V377.518H644.712V379.166H641.432V388.718H639.384ZM648.599 388.91C647.799 388.91 647.09 388.739 646.471 388.398C645.852 388.056 645.367 387.576 645.015 386.958C644.663 386.339 644.487 385.624 644.487 384.814C644.487 383.992 644.658 383.262 644.999 382.622C645.351 381.982 645.831 381.486 646.439 381.134C647.058 380.771 647.783 380.59 648.615 380.59C649.394 380.59 650.082 380.76 650.679 381.102C651.276 381.443 651.74 381.912 652.071 382.51C652.412 383.096 652.583 383.752 652.583 384.478C652.583 384.595 652.578 384.718 652.567 384.846C652.567 384.974 652.562 385.107 652.551 385.246H646.519C646.562 385.864 646.775 386.35 647.159 386.702C647.554 387.054 648.028 387.23 648.583 387.23C648.999 387.23 649.346 387.139 649.623 386.958C649.911 386.766 650.124 386.52 650.263 386.222H652.343C652.194 386.723 651.943 387.182 651.591 387.598C651.25 388.003 650.823 388.323 650.311 388.558C649.81 388.792 649.239 388.91 648.599 388.91ZM648.615 382.254C648.114 382.254 647.671 382.398 647.287 382.686C646.903 382.963 646.658 383.39 646.551 383.966H650.503C650.471 383.443 650.279 383.027 649.927 382.718C649.575 382.408 649.138 382.254 648.615 382.254ZM654.306 388.718V380.782H656.114L656.274 382.126C656.519 381.656 656.871 381.283 657.33 381.006C657.799 380.728 658.348 380.59 658.978 380.59C659.959 380.59 660.722 380.899 661.266 381.518C661.81 382.136 662.082 383.043 662.082 384.238V388.718H660.034V384.43C660.034 383.747 659.895 383.224 659.618 382.862C659.34 382.499 658.908 382.318 658.322 382.318C657.746 382.318 657.271 382.52 656.898 382.926C656.535 383.331 656.354 383.896 656.354 384.622V388.718H654.306ZM667.576 388.718C666.744 388.718 666.077 388.515 665.576 388.11C665.075 387.704 664.824 386.984 664.824 385.95V382.494H663.464V380.782H664.824L665.064 378.654H666.872V380.782H669.016V382.494H666.872V385.966C666.872 386.35 666.952 386.616 667.112 386.766C667.283 386.904 667.571 386.974 667.976 386.974H668.968V388.718H667.576ZM673.51 388.91C672.828 388.91 672.268 388.803 671.83 388.59C671.393 388.366 671.068 388.072 670.854 387.71C670.641 387.347 670.534 386.947 670.534 386.51C670.534 385.774 670.822 385.176 671.398 384.718C671.974 384.259 672.838 384.03 673.99 384.03H676.006V383.838C676.006 383.294 675.852 382.894 675.542 382.638C675.233 382.382 674.849 382.254 674.39 382.254C673.974 382.254 673.612 382.355 673.302 382.558C672.993 382.75 672.801 383.038 672.726 383.422H670.726C670.78 382.846 670.972 382.344 671.302 381.918C671.644 381.491 672.081 381.166 672.614 380.942C673.148 380.707 673.745 380.59 674.406 380.59C675.537 380.59 676.428 380.872 677.078 381.438C677.729 382.003 678.054 382.803 678.054 383.838V388.718H676.31L676.118 387.438C675.884 387.864 675.553 388.216 675.126 388.494C674.71 388.771 674.172 388.91 673.51 388.91ZM673.974 387.31C674.561 387.31 675.014 387.118 675.334 386.734C675.665 386.35 675.873 385.875 675.958 385.31H674.214C673.67 385.31 673.281 385.411 673.046 385.614C672.812 385.806 672.694 386.046 672.694 386.334C672.694 386.643 672.812 386.883 673.046 387.054C673.281 387.224 673.59 387.31 673.974 387.31ZM680.009 388.718V380.782H681.833L682.025 382.27C682.313 381.758 682.702 381.352 683.193 381.054C683.694 380.744 684.281 380.59 684.953 380.59V382.75H684.377C683.929 382.75 683.529 382.819 683.177 382.958C682.825 383.096 682.547 383.336 682.345 383.678C682.153 384.019 682.057 384.494 682.057 385.102V388.718H680.009Z" fill="white"/>
<path d="M576.5 360.718C576.5 358.508 578.291 356.718 580.5 356.718H619.5V409.718H580.5C578.291 409.718 576.5 407.927 576.5 405.718V360.718Z" fill="#DCE2E9"/>
<path d="M597.716 388.91C596.905 388.91 596.223 388.76 595.668 388.462C595.113 388.152 594.665 387.742 594.324 387.23C593.993 386.718 593.748 386.147 593.588 385.518C593.439 384.878 593.364 384.227 593.364 383.566C593.364 382.328 593.535 381.246 593.876 380.318C594.217 379.379 594.708 378.648 595.348 378.126C595.999 377.592 596.783 377.326 597.7 377.326C598.404 377.326 599.007 377.464 599.508 377.742C600.009 378.019 600.404 378.392 600.692 378.862C600.991 379.32 601.177 379.832 601.252 380.398H600.004C599.887 379.79 599.625 379.32 599.22 378.99C598.815 378.659 598.303 378.494 597.684 378.494C596.841 378.494 596.132 378.894 595.556 379.694C594.991 380.483 594.687 381.72 594.644 383.406C594.9 382.904 595.305 382.472 595.86 382.11C596.425 381.736 597.103 381.55 597.892 381.55C598.532 381.55 599.129 381.699 599.684 381.998C600.249 382.296 600.708 382.718 601.06 383.262C601.412 383.795 601.588 384.424 601.588 385.15C601.588 385.779 601.433 386.382 601.124 386.958C600.815 387.534 600.367 388.003 599.78 388.366C599.204 388.728 598.516 388.91 597.716 388.91ZM597.62 387.726C598.121 387.726 598.569 387.619 598.964 387.406C599.359 387.192 599.668 386.899 599.892 386.526C600.116 386.142 600.228 385.704 600.228 385.214C600.228 384.456 599.977 383.854 599.476 383.406C598.985 382.947 598.367 382.718 597.62 382.718C597.119 382.718 596.671 382.835 596.276 383.07C595.881 383.294 595.567 383.598 595.332 383.982C595.108 384.366 594.996 384.782 594.996 385.23C594.996 385.71 595.108 386.142 595.332 386.526C595.567 386.899 595.881 387.192 596.276 387.406C596.671 387.619 597.119 387.726 597.62 387.726Z" fill="#34355B"/>
</g>
<defs>
<filter id="filter0_d_5_91" x="421" y="198" width="436" height="281.718" filterUnits="userSpaceOnUse" color-interpolation-filters="sRGB">
<feFlood flood-opacity="0" result="BackgroundImageFix"/>
<feColorMatrix in="SourceAlpha" type="matrix" values="0 0 0 0 0 0 0 0 0 0 0 0 0 0 0 0 0 0 127 0" result="hardAlpha"/>
<feOffset dy="2"/>
<feGaussianBlur stdDeviation="2"/>
<feComposite in2="hardAlpha" operator="out"/>
<feColorMatrix type="matrix" values="0 0 0 0 0 0 0 0 0 0 0 0 0 0 0 0 0 0 0.1 0"/>
<feBlend mode="normal" in2="BackgroundImageFix" result="effect1_dropShadow_5_91"/>
<feBlend mode="normal" in="SourceGraphic" in2="effect1_dropShadow_5_91" result="shape"/>
</filter>
<linearGradient id="paint0_linear_5_91" x1="1280" y1="720" x2="-1.13249e-05" y2="2.01331e-05" gradientUnits="userSpaceOnUse">
<stop stop-color="#C2E9FB"/>
<stop offset="1" stop-color="#A1C4FD"/>
</linearGradient>
</defs>
</svg>
